<!--?xml version="1.0" encoding="utf-8"?-->
<!-- Generator: Adobe Illustrator 15.1.0, SVG Export Plug-In . SVG Version: 6.00 Build 0)  -->

<svg version="1.1" id="_x32_" xmlns="http://www.w3.org/2000/svg" xmlns:xlink="http://www.w3.org/1999/xlink" x="0px" y="0px" width="512px" height="512px" viewBox="0 0 512 512" style="width: 16px; height: 16px; opacity: 1;" xml:space="preserve">
<style type="text/css">

	.st0{fill:#4B4B4B;}
	.st1{fill:#4B4B4B;stroke:#327EC2;stroke-width:3;stroke-miterlimit:10;}

</style>
<g>
	<path class="st1" d="M371.797,236.063"></path>
	<polygon class="st0" points="222.375,112.453 301.859,60.656 457.125,114.063 376.938,166.281 405.891,176.375 511.984,107.25 
		298.547,33.875 193.406,102.359 	" style="fill: rgb(75, 75, 75);"></polygon>
	<polygon class="st0" points="307.719,211.375 210.125,274.953 54.875,221.563 153.156,157.531 124.188,147.438 0,228.344 
		213.438,301.75 336.688,221.469 	" style="fill: rgb(75, 75, 75);"></polygon>
	<polygon class="st0" points="338.813,258.063 215.844,338.141 0,263.906 0,289.531 219.156,364.906 338.813,286.969 	" style="fill: rgb(75, 75, 75);"></polygon>
	<polygon class="st0" points="406.594,213.922 406.594,242.813 512,174.141 512,145.266 	" style="fill: rgb(75, 75, 75);"></polygon>
	<polygon class="st0" points="338.813,314.656 215.844,394.75 0,320.516 0,346.156 219.156,421.531 338.813,343.563 	" style="fill: rgb(75, 75, 75);"></polygon>
	<polygon class="st0" points="406.594,270.531 406.594,299.422 512,230.75 512,201.875 	" style="fill: rgb(75, 75, 75);"></polygon>
	<polygon class="st0" points="406.594,327.141 406.594,356.031 512,287.359 512,258.484 	" style="fill: rgb(75, 75, 75);"></polygon>
	<polygon class="st0" points="338.813,371.281 215.844,451.375 0,377.125 0,402.75 219.156,478.125 338.813,400.188 	" style="fill: rgb(75, 75, 75);"></polygon>
	<polygon class="st0" points="177.703,112.563 143.781,136.391 357.688,210.906 357.688,387.281 391.609,363.469 391.609,187.078 	
		" style="fill: rgb(75, 75, 75);"></polygon>
	<path class="st0" d="M180.703,166.344l1.016,0.031l1.016,0.125l1,0.188l0.984,0.266l11.328,3.453l0.875,0.297l0.766,0.359
		l0.625,0.359l0.516,0.422l0.406,0.438l0.297,0.453l0.188,0.453l0.078,0.5l-0.016,0.5l-0.125,0.5l-0.219,0.5l-0.313,0.516
		l-0.422,0.547l-0.484,0.531l-0.594,0.5l-0.656,0.5l-0.734,0.469l-0.797,0.469l-0.859,0.422l-0.906,0.359l-0.906,0.344l-0.922,0.297
		l-0.953,0.266l-0.984,0.188l-1.031,0.172l-1.016,0.109l-1.016,0.063h-1.047l-0.984-0.063l-1-0.141l-0.969-0.172l-0.969-0.266
		l-11.313-3.453l-0.906-0.313l-0.797-0.344l-0.641-0.375l-0.531-0.406l-0.422-0.422l-0.281-0.453l-0.188-0.469l-0.047-0.5l0.031-0.5
		l0.109-0.5l0.234-0.516l0.313-0.516l0.406-0.531l0.5-0.531l0.594-0.516l0.656-0.5l0.734-0.469l0.797-0.453l0.859-0.406l0.906-0.406
		l0.906-0.344l0.922-0.281l0.953-0.25l0.984-0.219l1-0.156l0.984-0.094l1.016-0.047L180.703,166.344z M191.719,173.359
		l-11.188-3.422l-0.875-0.203l-0.859-0.109l-0.875-0.031l-0.875,0.094l-0.828,0.156l-0.781,0.234l-0.719,0.328l-0.672,0.406
		l-0.547,0.438l-0.359,0.438l-0.188,0.438l-0.016,0.438l0.203,0.375l0.391,0.344l0.594,0.328l0.75,0.266l11.203,3.422l0.859,0.203
		l0.844,0.125l0.859,0.031l0.875-0.063l0.844-0.188l0.781-0.25l0.703-0.344l0.656-0.375l0.547-0.453l0.391-0.422l0.188-0.422v-0.422
		l-0.188-0.406l-0.391-0.375l-0.563-0.313L191.719,173.359" style="fill: rgb(75, 75, 75);"></path>
	<path class="st0" d="M145.188,191.125l1.016,0.063l0.984,0.125l0.984,0.219l0.984,0.266l11.328,3.453l0.875,0.281l0.781,0.344
		l0.656,0.375l0.516,0.406l0.406,0.438l0.297,0.453l0.188,0.469l0.078,0.484l-0.016,0.5l-0.125,0.5l-0.25,0.531l-0.344,0.531
		l-0.391,0.531l-0.469,0.5l-0.594,0.531l-0.656,0.469l-0.75,0.516l-0.813,0.453l-0.844,0.406l-0.891,0.375l-0.906,0.344
		l-0.922,0.281l-0.953,0.25l-1,0.219l-1.016,0.156l-1.016,0.125l-1.016,0.063h-1.047l-1.016-0.063l-0.984-0.141l-0.969-0.203
		l-0.953-0.25l-11.313-3.453l-0.938-0.328l-0.781-0.313l-0.656-0.391l-0.5-0.391l-0.422-0.453l-0.297-0.453l-0.172-0.469l-0.047-0.5
		l0.016-0.5l0.125-0.516l0.234-0.516l0.313-0.5l0.406-0.531l0.5-0.516l0.563-0.516l0.688-0.531l0.75-0.469l0.781-0.438l0.844-0.406
		l0.875-0.375l0.938-0.359l0.938-0.297l0.969-0.266l0.969-0.203l1-0.156l1-0.094l1.016-0.063H145.188z M156.203,198.172L145,194.75
		l-0.859-0.203l-0.891-0.109l-0.875-0.016l-0.844,0.078l-0.828,0.156l-0.781,0.25l-0.734,0.313l-0.672,0.406l-0.531,0.438
		l-0.359,0.438l-0.188,0.438l-0.031,0.438l0.188,0.375l0.375,0.375l0.563,0.313l0.766,0.313l11.203,3.406l0.859,0.219l0.875,0.094
		l0.875,0.016l0.875-0.047l0.844-0.188l0.781-0.266l0.703-0.328l0.672-0.406l0.547-0.438l0.375-0.438l0.188-0.406v-0.406
		l-0.203-0.406l-0.375-0.375l-0.563-0.328L156.203,198.172" style="fill: rgb(75, 75, 75);"></path>
	<path class="st0" d="M127.391,203.563l1.016,0.063l1,0.094l1.016,0.219l0.984,0.25l11.313,3.469l0.891,0.281l0.766,0.375
		l0.625,0.375l0.5,0.406l0.438,0.438l0.297,0.438l0.172,0.469l0.063,0.5v0.5l-0.125,0.5l-0.234,0.516l-0.313,0.516l-0.422,0.547
		l-0.5,0.516l-0.578,0.531l-0.672,0.484l-0.719,0.484l-0.797,0.438l-0.844,0.422l-0.938,0.391l-0.891,0.344l-0.938,0.281
		l-0.953,0.266l-0.984,0.203l-1.016,0.156l-1.016,0.125l-1.031,0.063h-1.047l-0.984-0.063l-1-0.141l-0.969-0.203l-0.969-0.25
		l-11.313-3.453l-0.922-0.328l-0.781-0.344l-0.656-0.375l-0.516-0.375l-0.422-0.469l-0.266-0.453l-0.172-0.484l-0.078-0.484
		l0.016-0.484l0.141-0.516l0.219-0.516l0.313-0.5l0.438-0.547l0.5-0.531l0.563-0.516l0.672-0.5l0.734-0.469l0.797-0.438l0.859-0.422
		l0.906-0.391l0.906-0.344l0.922-0.313l0.953-0.234l0.984-0.203l1-0.156l1.016-0.125l1.016-0.031H127.391z M138.406,210.609
		l-11.203-3.422l-0.859-0.219l-0.875-0.109l-0.844-0.031l-0.844,0.078l-0.875,0.156l-0.781,0.25l-0.75,0.344l-0.656,0.406
		l-0.547,0.438l-0.359,0.438l-0.172,0.438l0.016,0.406l0.156,0.406l0.391,0.344l0.578,0.344l0.75,0.281l11.219,3.406l0.844,0.219
		l0.859,0.109l0.859,0.016l0.906-0.063l0.828-0.172l0.766-0.25l0.703-0.328l0.656-0.406l0.547-0.438l0.391-0.438l0.203-0.438
		l0.031-0.406l-0.219-0.406l-0.391-0.344l-0.578-0.344L138.406,210.609" style="fill: rgb(75, 75, 75);"></path>
	<polygon class="st0" points="102.188,216.75 129.109,224.969 124.844,227.953 103.234,221.344 103.203,226.125 97.953,224.516 
		97.922,219.734 	" style="fill: rgb(75, 75, 75);"></polygon>
	<path class="st0" d="M162.938,178.75l1,0.047l1.016,0.109l1,0.219l1,0.25l11.313,3.438l0.875,0.313l0.766,0.344l0.641,0.375
		l0.5,0.422l0.438,0.422l0.297,0.453l0.156,0.484l0.078,0.469l-0.016,0.5l-0.125,0.516l-0.219,0.5l-0.313,0.516l-0.406,0.531
		l-0.484,0.531l-0.594,0.516l-0.672,0.516l-0.734,0.469l-0.781,0.438l-0.844,0.406l-0.891,0.375L175,192.266l-0.938,0.297
		l-0.969,0.25l-0.984,0.219l-1,0.156l-1.016,0.109l-1,0.047l-1.031-0.016l-1.016-0.047l-1.016-0.125l-0.984-0.188l-0.953-0.25
		l-11.313-3.438l-0.922-0.344l-0.766-0.328l-0.656-0.391l-0.5-0.406l-0.422-0.438l-0.297-0.438l-0.188-0.469l-0.063-0.5l0.016-0.5
		l0.141-0.5l0.219-0.531l0.359-0.531l0.406-0.5l0.484-0.531l0.563-0.5l0.656-0.5l0.75-0.484l0.813-0.453l0.844-0.406l0.891-0.391
		l0.891-0.328l0.938-0.313l0.953-0.25l0.984-0.188l1-0.156l1.016-0.125l1.016-0.063L162.938,178.75z M173.938,185.781l-11.188-3.422
		l-0.859-0.203l-0.859-0.125L160.156,182l-0.844,0.063l-0.844,0.188l-0.781,0.234l-0.734,0.328l-0.688,0.406l-0.547,0.453
		l-0.344,0.422l-0.188,0.438l0.016,0.406l0.172,0.406l0.375,0.375l0.578,0.313l0.766,0.281l11.203,3.406l0.859,0.219l0.844,0.125
		h0.875l0.906-0.063l0.813-0.188l0.766-0.234l0.703-0.328l0.656-0.406l0.578-0.438l0.375-0.438l0.203-0.438l0.016-0.406
		l-0.219-0.406l-0.391-0.344l-0.578-0.313L173.938,185.781" style="fill: rgb(75, 75, 75);"></path>
	<path class="st0" d="M274,113.547l0.594-0.391l0.719-0.484l0.859-0.547l0.984-0.609l1.078-0.672l1.172-0.75l1.281-0.875l1.375-1
		l1-0.734l1.063-0.797l1.094-0.875l1.156-0.938l0.594-0.5l0.594-0.469l0.563-0.438l0.563-0.406c2.031-1.5,3.844-2.531,5.406-3.25
		c1.578-0.734,2.906-1.125,4-1.359s1.938-0.266,2.516-0.234l0.969,0.125l0.203-0.563l0.328-0.5l0.469-0.531l0.609-0.5
		c1.156-0.844,2.891-1.594,4.953-2.141c2.078-0.547,4.484-0.922,7.047-1.016c2.531-0.094,5.219,0.078,7.797,0.594
		c2.594,0.5,5.094,1.375,7.297,2.656l1.141,0.75l0.984,0.813l0.828,0.828l0.703,0.859l0.828,0.297l1.781-0.031l1.797,0.234
		l1.703,0.531l1.547,0.844l1.266,1.063l0.922,1.063l0.719,1.156l0.594,1.281l0.844,0.906l0.781,0.938l0.672,0.984l0.563,1.016
		l0.641,0.563c1.563,1.063,2.438,2.172,3,3.281s0.813,2.219,1.094,3.344c0.281,1.094,0.609,2.188,1.344,3.25
		s1.875,2.094,3.813,3.063c0.984,0.5,2.813,0.156,5.234-0.516c2.438-0.672,5.484-1.672,8.922-2.484
		c3.438-0.781,7.281-1.375,11.313-1.25s8.25,0.984,12.438,3.094l0.094,0.969c-0.125,0.656-0.531,1.688-1.719,3.281
		c-1.172,1.563-3.094,3.688-6.234,6.516s-7.484,6.359-13.484,10.734c-6.016,4.406-10.938,7.656-14.938,10.063
		c-4,2.375-7.078,3.922-9.406,4.906c-2.344,1-3.938,1.438-4.969,1.625s-1.5,0.125-1.594,0.125c-4.188-2.125-6.344-4.469-7.297-6.875
		c-0.953-2.375-0.703-4.766-0.047-6.969c0.656-2.188,1.703-4.188,2.344-5.766s0.875-2.734-0.125-3.234
		c-1.922-0.969-3.797-1.469-5.656-1.703c-1.844-0.234-3.688-0.234-5.531-0.203s-3.703,0.094-5.609-0.031
		c-1.891-0.125-3.844-0.469-5.859-1.203l-1.609-0.516l-1.563-0.344l-1.5-0.188l-1.422-0.125c-1-0.047-1.906-0.094-2.766-0.156
		c-0.844-0.063-1.641-0.125-2.406-0.219s-1.5-0.219-2.234-0.375c-0.75-0.156-1.5-0.344-2.297-0.625
		c-0.797-0.266-1.453-0.594-2-0.969l-1.25-1.188l-0.578-1.313l0.063-1.313l-0.563-0.5c-3.609-0.281-6.719-1.063-9.375-2.063
		s-4.844-2.25-6.641-3.5c-1.797-1.234-3.172-2.484-4.203-3.516c-1.031-1.047-1.688-1.844-2.031-2.203l-0.281-0.438l0.016-0.406
		l0.313-0.438L274,113.547z" style="fill: rgb(75, 75, 75);"></path>
</g>
</svg>
