<!--?xml version="1.0" encoding="utf-8"?-->
<!-- Generator: Adobe Illustrator 15.1.0, SVG Export Plug-In . SVG Version: 6.00 Build 0)  -->

<svg version="1.1" id="_x32_" xmlns="http://www.w3.org/2000/svg" xmlns:xlink="http://www.w3.org/1999/xlink" x="0px" y="0px" width="512px" height="512px" viewBox="0 0 512 512" style="width: 16px; height: 16px; opacity: 1;" xml:space="preserve">
<style type="text/css">

	.st0{fill:#4B4B4B;}

</style>
<g>
	<path class="st0" d="M494.156,450.629l-75.688-75.688l29.75-29.75l-17.5-17.5l-23.344,23.344L106.094,49.754
		c0,0-43.313-11.25-88.219-49.75C0.219,88.254,43.531,128.348,83.656,168.473C114.813,199.629,313,397.832,336.813,421.629
		l-25.656,25.625l17.5,17.5l32.5-32.5l75.688,75.688c5.406,5.406,14.156,5.406,19.563,0l37.75-37.734
		C499.563,464.816,499.563,456.035,494.156,450.629z M376.219,380.754L107.438,111.973l-5.844,5.828l268.781,268.766l-22.656,22.656
		L95.313,156.816l-3.469-3.469C58.938,120.535,27.656,89.301,30.531,30.582c30.156,20.859,56.531,30.5,66.875,33.766L395,361.973
		L376.219,380.754z" style="fill: rgb(75, 75, 75);"></path>
	<path class="st0" d="M414.625,64.348c10.313-3.266,36.688-12.906,66.844-33.766c2.875,58.719-28.406,89.953-61.313,122.766
		l-3.469,3.469l-91.781,91.797l11.656,11.656c42.438-42.438,79.719-79.703,91.813-91.797
		c40.094-40.125,83.438-80.219,65.781-168.469c-44.938,38.5-88.25,49.75-88.25,49.75L265.969,189.691l11.656,11.656L414.625,64.348z
		" style="fill: rgb(75, 75, 75);"></path>
	<path class="st0" d="M246.031,350.785l-11.656-11.641l-70.094,70.078l-22.656-22.656l70.094-70.078l-5.844-5.828l-70.094,70.094
		l-18.75-18.781l70.094-70.094l-11.688-11.656l-70.813,70.813l-23.344-23.344l-17.5,17.5l29.75,29.75l-75.688,75.688
		c-5.406,5.406-5.406,14.188,0,19.578l37.75,37.734c5.406,5.406,14.188,5.406,19.594,0l75.656-75.688l32.5,32.5l17.5-17.5
		l-25.625-25.625C183.25,413.566,211.281,385.551,246.031,350.785z" style="fill: rgb(75, 75, 75);"></path>
	<polygon class="st0" points="296.406,220.129 302.25,225.957 410.406,117.801 404.563,111.973 	" style="fill: rgb(75, 75, 75);"></polygon>
</g>
</svg>
